<?xml version="1.0" standalone="no"?>
<!DOCTYPE svg PUBLIC "-//W3C//DTD SVG 20010904//EN"
 "http://www.w3.org/TR/2001/REC-SVG-20010904/DTD/svg10.dtd">
<svg version="1.0" xmlns="http://www.w3.org/2000/svg"
 width="512.000000pt" height="512.000000pt" viewBox="0 0 512.000000 512.000000"
 preserveAspectRatio="xMidYMid meet">

<g transform="translate(0.000000,512.000000) scale(0.100000,-0.100000)"
fill="#000000" stroke="none">
<path d="M2400 5113 c-224 -21 -397 -54 -568 -108 -916 -290 -1582 -1072
-1727 -2025 -9 -58 -19 -187 -22 -286 -16 -475 101 -931 346 -1349 l29 -50
-203 -540 c-112 -297 -207 -557 -210 -578 -8 -45 25 -120 66 -150 64 -46 68
-46 688 187 l574 215 79 -40 c536 -269 1153 -338 1733 -193 624 156 1176 558
1515 1104 504 814 504 1826 0 2640 -456 735 -1281 1189 -2140 1178 -69 0 -141
-3 -160 -5z m-485 -1272 c231 -112 448 -470 385 -635 -5 -14 -43 -62 -84 -107
-81 -87 -136 -182 -136 -235 0 -78 95 -207 306 -416 224 -222 312 -282 405
-281 60 1 114 32 228 134 103 90 141 105 224 90 135 -25 279 -110 407 -241
135 -138 166 -259 102 -392 -102 -210 -335 -348 -587 -348 -276 0 -662 181
-991 464 -133 113 -345 331 -438 446 -532 666 -551 1337 -43 1526 87 32 148
31 222 -5z"/>
</g>
</svg>
